<?xml version="1.0" ?><svg width="64px" height="64px" viewBox="0 0 64 64" xmlns="http://www.w3.org/2000/svg"><defs><style>.cls-1{fill:#d0e1e8;}.cls-2{fill:#617880;}.cls-3{fill:#e5936b;}.cls-4{fill:#748a95;}.cls-5{fill:#f0f4f7;}</style></defs><g data-name="Bird House" id="Bird_House"><path class="cls-1" d="M33.89,37.84V54.11a1.89,1.89,0,0,1-3.78,0V37.84l1.61-1.74Z" id="rect135457-0"/><path class="cls-2" d="M25.88,32.91v2.46a2.46,2.46,0,0,0,2.47,2.47h7.3a2.46,2.46,0,0,0,2.47-2.47V32.91l-5.44-2.26Z" id="rect133373-3"/><path class="cls-3" d="M35.56,32.91h4.15a1.63,1.63,0,0,0,1.64-1.64V19.2l-9-8.39L22.65,19.2V31.27a1.63,1.63,0,0,0,1.64,1.64h4.15l4-1.88Z" id="rect132167-4"/><path class="cls-4" d="M35.56,32.91V28.63a3.69,3.69,0,0,0,0-.58l-2.94-2.93a3.68,3.68,0,0,0-.58-.05,3.56,3.56,0,0,0-3.56,3.56v4.28Z" id="path137376-4"/><path class="cls-5" d="M25.64,17.35v4.22a1.55,1.55,0,0,0,3.09,0V15.45l-2.3-.65Z" id="rect135663-7"/><path class="cls-5" d="M32.58,13.8V28.05a1.47,1.47,0,1,0,2.94,0V22a1.46,1.46,0,0,1,2.9.27v2a1.47,1.47,0,1,0,2.93,0V18.48l-1.24-4.79Z" id="path135921-8"/><path class="cls-4" d="M30.69,8.37l-12,7.39A2.5,2.5,0,0,0,21.32,20L32,13.44,42.69,20a2.5,2.5,0,1,0,2.62-4.26l-12-7.39A2.52,2.52,0,0,0,30.69,8.37Z" id="path132443-7"/><path d="M21.2,41.52l-.3-.18a1,1,0,0,0-1.37.37,1,1,0,0,0,.37,1.36l.31.18a1,1,0,0,0,1.36-.37A1,1,0,0,0,21.2,41.52Z"/><path d="M15,39.08a1,1,0,0,0,.37,1.37l.3.18A1,1,0,0,0,17,40.26a1,1,0,0,0-.37-1.36l-.3-.18A1,1,0,0,0,15,39.08Z"/><path d="M15.66,41.34l-.3.18a1,1,0,0,0,.5,1.86,1,1,0,0,0,.5-.13l.3-.17a1,1,0,0,0-1-1.74Z"/><path d="M20.21,38.72l-.31.18a1,1,0,0,0-.37,1.36,1,1,0,0,0,1.37.37l.3-.18a1,1,0,0,0-1-1.73Z"/><path d="M18.28,42.43a1,1,0,0,0-1,1v.35a1,1,0,0,0,2,0v-.35A1,1,0,0,0,18.28,42.43Z"/><path d="M18.28,37.19a1,1,0,0,0-1,1v.35a1,1,0,0,0,2,0v-.35A1,1,0,0,0,18.28,37.19Z"/><path d="M48.64,40.56l-.3-.17a1,1,0,1,0-1,1.73l.3.17a1,1,0,0,0,.5.14,1,1,0,0,0,.5-1.87Z"/><path d="M43.8,37.76a1,1,0,0,0-1,1.73l.31.18a1,1,0,0,0,1.37-.36,1,1,0,0,0-.37-1.37Z"/><path d="M43.1,40.39l-.3.17a1,1,0,0,0,.5,1.87,1,1,0,0,0,.5-.14l.3-.17a1,1,0,0,0,.37-1.37A1,1,0,0,0,43.1,40.39Z"/><path d="M47.64,37.76l-.3.18a1,1,0,0,0,.5,1.87,1,1,0,0,0,.5-.14l.3-.18A1,1,0,0,0,49,38.13,1,1,0,0,0,47.64,37.76Z"/><path d="M45.72,41.47a1,1,0,0,0-1,1v.36a1,1,0,0,0,2,0v-.36A1,1,0,0,0,45.72,41.47Z"/><path d="M45.72,36.23a1,1,0,0,0-1,1v.35a1,1,0,0,0,2,0v-.35A1,1,0,0,0,45.72,36.23Z"/><circle cx="18.71" cy="30.38" r="1.25"/><circle cx="45.95" cy="27.77" r="1.25"/><circle cx="37.27" cy="48.23" r="1.25"/><path d="M42.35,21a3.45,3.45,0,0,0,2.46.33,3.5,3.5,0,0,0,1-6.39l-12-7.39a3.47,3.47,0,0,0-3.67,0l-12,7.39A3.49,3.49,0,0,0,21.65,21V31.27a2.65,2.65,0,0,0,2.64,2.64h.59v1.46a3.47,3.47,0,0,0,3.47,3.47h.76V54.11a2.89,2.89,0,0,0,5.78,0V38.84h.76a3.47,3.47,0,0,0,3.47-3.47V33.91h.59a2.64,2.64,0,0,0,2.64-2.64ZM37,19.75a2.46,2.46,0,0,0-2.43,2c0,.17,0-.06,0,6.28a.47.47,0,0,1-.94,0V15.59l6.77,4.16v4.47a.47.47,0,0,1-.93,0v-2A2.47,2.47,0,0,0,37,19.75ZM29.44,31.91V28.63a2.56,2.56,0,0,1,2.14-2.52v1.94a2.48,2.48,0,0,0,2.47,2.47,2.1,2.1,0,0,0,.51-.06v1.45ZM19.66,19.35a1.48,1.48,0,0,1-.93-.67,1.52,1.52,0,0,1,.49-2.07l12-7.39a1.52,1.52,0,0,1,1.58,0l12,7.39a1.5,1.5,0,0,1,.48,2.07,1.48,1.48,0,0,1-.93.67,1.5,1.5,0,0,1-1.13-.18L32.53,12.58a1,1,0,0,0-1.05,0L20.79,19.17A1.49,1.49,0,0,1,19.66,19.35Zm7-1.44,1.09-.67v4.33a.55.55,0,0,1-1.09,0Zm-3,13.36V19.75l1-.6v2.42a2.55,2.55,0,0,0,5.09,0V16l1.85-1.14v9.24a4.56,4.56,0,0,0-4.14,4.52v3.28H24.29A.63.63,0,0,1,23.65,31.27Zm9.24,22.84a.89.89,0,0,1-1.78,0V38.84h1.78Zm4.23-18.74a1.47,1.47,0,0,1-1.47,1.47h-7.3a1.47,1.47,0,0,1-1.47-1.47V33.91H37.12Zm2.59-3.46H36.56c0-5.48,0,2.66,0-9.84a.46.46,0,0,1,.9.15v2a2.48,2.48,0,0,0,2.47,2.47,2.4,2.4,0,0,0,.46-.05v4.64A.63.63,0,0,1,39.71,31.91Z"/></g></svg>